<?xml version="1.0" encoding="UTF-8" standalone="no"?>
<!DOCTYPE svg PUBLIC "-//W3C//DTD SVG 1.1//EN"
 "http://www.w3.org/Graphics/SVG/1.1/DTD/svg11.dtd">
<!-- Generated by graphviz version 8.1.0 (20230707.0739)
 -->
<!-- Pages: 1 -->
<svg width="1341pt" height="620pt"
 viewBox="0.00 0.00 1340.94 620.00" xmlns="http://www.w3.org/2000/svg" xmlns:xlink="http://www.w3.org/1999/xlink">
<g id="graph0" class="graph" transform="scale(1 1) rotate(0) translate(4 616)">
<polygon fill="white" stroke="none" points="-4,4 -4,-616 1336.94,-616 1336.94,4 -4,4"/>
<!-- [root] data.tfe_organization.this (expand) -->
<g id="node1" class="node">
<title>[root] data.tfe_organization.this (expand)</title>
<polygon fill="none" stroke="black" points="1125.94,-108 971.94,-108 971.94,-72 1125.94,-72 1125.94,-108"/>
<text text-anchor="middle" x="1048.94" y="-84.95" font-family="Times,serif" font-size="14.00">data.tfe_organization.this</text>
</g>
<!-- [root] provider[&quot;registry.terraform.io/hashicorp/tfe&quot;] -->
<g id="node7" class="node">
<title>[root] provider[&quot;registry.terraform.io/hashicorp/tfe&quot;]</title>
<polygon fill="none" stroke="black" points="1048.94,-36 791.03,-18 1048.94,0 1306.86,-18 1048.94,-36"/>
<text text-anchor="middle" x="1048.94" y="-12.95" font-family="Times,serif" font-size="14.00">provider[&quot;registry.terraform.io/hashicorp/tfe&quot;]</text>
</g>
<!-- [root] data.tfe_organization.this (expand)&#45;&gt;[root] provider[&quot;registry.terraform.io/hashicorp/tfe&quot;] -->
<g id="edge1" class="edge">
<title>[root] data.tfe_organization.this (expand)&#45;&gt;[root] provider[&quot;registry.terraform.io/hashicorp/tfe&quot;]</title>
<path fill="none" stroke="black" d="M1048.94,-71.7C1048.94,-64.24 1048.94,-55.32 1048.94,-46.97"/>
<polygon fill="black" stroke="black" points="1052.44,-47.1 1048.94,-37.1 1045.44,-47.1 1052.44,-47.1"/>
</g>
<!-- [root] helm_release.operator (expand) -->
<g id="node2" class="node">
<title>[root] helm_release.operator (expand)</title>
<polygon fill="none" stroke="black" points="339.32,-468 202.57,-468 202.57,-432 339.32,-432 339.32,-468"/>
<text text-anchor="middle" x="270.94" y="-444.95" font-family="Times,serif" font-size="14.00">helm_release.operator</text>
</g>
<!-- [root] kubernetes_secret.operator (expand) -->
<g id="node4" class="node">
<title>[root] kubernetes_secret.operator (expand)</title>
<polygon fill="none" stroke="black" points="765.69,-396 604.19,-396 604.19,-360 765.69,-360 765.69,-396"/>
<text text-anchor="middle" x="684.94" y="-372.95" font-family="Times,serif" font-size="14.00">kubernetes_secret.operator</text>
</g>
<!-- [root] helm_release.operator (expand)&#45;&gt;[root] kubernetes_secret.operator (expand) -->
<g id="edge2" class="edge">
<title>[root] helm_release.operator (expand)&#45;&gt;[root] kubernetes_secret.operator (expand)</title>
<path fill="none" stroke="black" d="M339.77,-437.36C409.17,-425.63 516.69,-407.45 593.27,-394.5"/>
<polygon fill="black" stroke="black" points="593.59,-397.83 602.87,-392.71 592.42,-390.93 593.59,-397.83"/>
</g>
<!-- [root] provider[&quot;registry.terraform.io/hashicorp/helm&quot;] -->
<g id="node5" class="node">
<title>[root] provider[&quot;registry.terraform.io/hashicorp/helm&quot;]</title>
<polygon fill="none" stroke="black" points="270.94,-396 0,-378 270.94,-360 541.89,-378 270.94,-396"/>
<text text-anchor="middle" x="270.94" y="-372.95" font-family="Times,serif" font-size="14.00">provider[&quot;registry.terraform.io/hashicorp/helm&quot;]</text>
</g>
<!-- [root] helm_release.operator (expand)&#45;&gt;[root] provider[&quot;registry.terraform.io/hashicorp/helm&quot;] -->
<g id="edge3" class="edge">
<title>[root] helm_release.operator (expand)&#45;&gt;[root] provider[&quot;registry.terraform.io/hashicorp/helm&quot;]</title>
<path fill="none" stroke="black" d="M270.94,-431.7C270.94,-424.24 270.94,-415.32 270.94,-406.97"/>
<polygon fill="black" stroke="black" points="274.44,-407.1 270.94,-397.1 267.44,-407.1 274.44,-407.1"/>
</g>
<!-- [root] kubernetes_namespace.operator (expand) -->
<g id="node3" class="node">
<title>[root] kubernetes_namespace.operator (expand)</title>
<polygon fill="none" stroke="black" points="768.94,-324 578.94,-324 578.94,-288 768.94,-288 768.94,-324"/>
<text text-anchor="middle" x="673.94" y="-300.95" font-family="Times,serif" font-size="14.00">kubernetes_namespace.operator</text>
</g>
<!-- [root] provider[&quot;registry.terraform.io/hashicorp/kubernetes&quot;] -->
<g id="node6" class="node">
<title>[root] provider[&quot;registry.terraform.io/hashicorp/kubernetes&quot;]</title>
<polygon fill="none" stroke="black" points="635.94,-252 335.32,-234 635.94,-216 936.57,-234 635.94,-252"/>
<text text-anchor="middle" x="635.94" y="-228.95" font-family="Times,serif" font-size="14.00">provider[&quot;registry.terraform.io/hashicorp/kubernetes&quot;]</text>
</g>
<!-- [root] kubernetes_namespace.operator (expand)&#45;&gt;[root] provider[&quot;registry.terraform.io/hashicorp/kubernetes&quot;] -->
<g id="edge4" class="edge">
<title>[root] kubernetes_namespace.operator (expand)&#45;&gt;[root] provider[&quot;registry.terraform.io/hashicorp/kubernetes&quot;]</title>
<path fill="none" stroke="black" d="M664.55,-287.7C660.21,-279.7 654.96,-270.02 650.14,-261.15"/>
<polygon fill="black" stroke="black" points="652.82,-259.74 644.97,-252.62 646.66,-263.08 652.82,-259.74"/>
</g>
<!-- [root] tfe_project.operator (expand) -->
<g id="node8" class="node">
<title>[root] tfe_project.operator (expand)</title>
<polygon fill="none" stroke="black" points="1110.57,-180 987.32,-180 987.32,-144 1110.57,-144 1110.57,-180"/>
<text text-anchor="middle" x="1048.94" y="-156.95" font-family="Times,serif" font-size="14.00">tfe_project.operator</text>
</g>
<!-- [root] kubernetes_namespace.operator (expand)&#45;&gt;[root] tfe_project.operator (expand) -->
<g id="edge5" class="edge">
<title>[root] kubernetes_namespace.operator (expand)&#45;&gt;[root] tfe_project.operator (expand)</title>
<path fill="none" stroke="black" d="M769.15,-289.14C841.08,-276.7 930.06,-260.18 945.94,-252 966.63,-241.35 966.47,-231.36 983.94,-216 994.99,-206.29 1007.44,-195.99 1018.46,-187.08"/>
<polygon fill="black" stroke="black" points="1020.34,-189.26 1025.94,-180.27 1015.95,-183.8 1020.34,-189.26"/>
</g>
<!-- [root] kubernetes_secret.operator (expand)&#45;&gt;[root] kubernetes_namespace.operator (expand) -->
<g id="edge6" class="edge">
<title>[root] kubernetes_secret.operator (expand)&#45;&gt;[root] kubernetes_namespace.operator (expand)</title>
<path fill="none" stroke="black" d="M682.23,-359.7C681.05,-352.24 679.65,-343.32 678.34,-334.97"/>
<polygon fill="black" stroke="black" points="681.64,-334.44 676.63,-325.1 674.73,-335.53 681.64,-334.44"/>
</g>
<!-- [root] tfe_team_token.operator (expand) -->
<g id="node12" class="node">
<title>[root] tfe_team_token.operator (expand)</title>
<polygon fill="none" stroke="black" points="936.69,-324 787.19,-324 787.19,-288 936.69,-288 936.69,-324"/>
<text text-anchor="middle" x="861.94" y="-300.95" font-family="Times,serif" font-size="14.00">tfe_team_token.operator</text>
</g>
<!-- [root] kubernetes_secret.operator (expand)&#45;&gt;[root] tfe_team_token.operator (expand) -->
<g id="edge7" class="edge">
<title>[root] kubernetes_secret.operator (expand)&#45;&gt;[root] tfe_team_token.operator (expand)</title>
<path fill="none" stroke="black" d="M729.15,-359.52C753,-350.08 782.63,-338.37 807.85,-328.39"/>
<polygon fill="black" stroke="black" points="808.98,-331.31 816.99,-324.38 806.41,-324.8 808.98,-331.31"/>
</g>
<!-- [root] tfe_project.operator (expand)&#45;&gt;[root] data.tfe_organization.this (expand) -->
<g id="edge16" class="edge">
<title>[root] tfe_project.operator (expand)&#45;&gt;[root] data.tfe_organization.this (expand)</title>
<path fill="none" stroke="black" d="M1048.94,-143.7C1048.94,-136.24 1048.94,-127.32 1048.94,-118.97"/>
<polygon fill="black" stroke="black" points="1052.44,-119.1 1048.94,-109.1 1045.44,-119.1 1052.44,-119.1"/>
</g>
<!-- [root] tfe_project_variable_set.tfc&#45;operator (expand) -->
<g id="node9" class="node">
<title>[root] tfe_project_variable_set.tfc&#45;operator (expand)</title>
<polygon fill="none" stroke="black" points="1332.94,-396 1118.94,-396 1118.94,-360 1332.94,-360 1332.94,-396"/>
<text text-anchor="middle" x="1225.94" y="-372.95" font-family="Times,serif" font-size="14.00">tfe_project_variable_set.tfc&#45;operator</text>
</g>
<!-- [root] tfe_variable_set.operator (expand) -->
<g id="node14" class="node">
<title>[root] tfe_variable_set.operator (expand)</title>
<polygon fill="none" stroke="black" points="1311.44,-324 1160.44,-324 1160.44,-288 1311.44,-288 1311.44,-324"/>
<text text-anchor="middle" x="1235.94" y="-300.95" font-family="Times,serif" font-size="14.00">tfe_variable_set.operator</text>
</g>
<!-- [root] tfe_project_variable_set.tfc&#45;operator (expand)&#45;&gt;[root] tfe_variable_set.operator (expand) -->
<g id="edge17" class="edge">
<title>[root] tfe_project_variable_set.tfc&#45;operator (expand)&#45;&gt;[root] tfe_variable_set.operator (expand)</title>
<path fill="none" stroke="black" d="M1228.42,-359.7C1229.48,-352.24 1230.76,-343.32 1231.95,-334.97"/>
<polygon fill="black" stroke="black" points="1235.55,-335.5 1233.5,-325.1 1228.62,-334.51 1235.55,-335.5"/>
</g>
<!-- [root] tfe_team.operator (expand) -->
<g id="node10" class="node">
<title>[root] tfe_team.operator (expand)</title>
<polygon fill="none" stroke="black" points="1105.32,-252 992.57,-252 992.57,-216 1105.32,-216 1105.32,-252"/>
<text text-anchor="middle" x="1048.94" y="-228.95" font-family="Times,serif" font-size="14.00">tfe_team.operator</text>
</g>
<!-- [root] tfe_team.operator (expand)&#45;&gt;[root] tfe_project.operator (expand) -->
<g id="edge18" class="edge">
<title>[root] tfe_team.operator (expand)&#45;&gt;[root] tfe_project.operator (expand)</title>
<path fill="none" stroke="black" d="M1048.94,-215.7C1048.94,-208.24 1048.94,-199.32 1048.94,-190.97"/>
<polygon fill="black" stroke="black" points="1052.44,-191.1 1048.94,-181.1 1045.44,-191.1 1052.44,-191.1"/>
</g>
<!-- [root] tfe_team_project_access.admin (expand) -->
<g id="node11" class="node">
<title>[root] tfe_team_project_access.admin (expand)</title>
<polygon fill="none" stroke="black" points="1142.82,-324 955.07,-324 955.07,-288 1142.82,-288 1142.82,-324"/>
<text text-anchor="middle" x="1048.94" y="-300.95" font-family="Times,serif" font-size="14.00">tfe_team_project_access.admin</text>
</g>
<!-- [root] tfe_team_project_access.admin (expand)&#45;&gt;[root] tfe_team.operator (expand) -->
<g id="edge19" class="edge">
<title>[root] tfe_team_project_access.admin (expand)&#45;&gt;[root] tfe_team.operator (expand)</title>
<path fill="none" stroke="black" d="M1048.94,-287.7C1048.94,-280.24 1048.94,-271.32 1048.94,-262.97"/>
<polygon fill="black" stroke="black" points="1052.44,-263.1 1048.94,-253.1 1045.44,-263.1 1052.44,-263.1"/>
</g>
<!-- [root] tfe_team_token.operator (expand)&#45;&gt;[root] tfe_team.operator (expand) -->
<g id="edge20" class="edge">
<title>[root] tfe_team_token.operator (expand)&#45;&gt;[root] tfe_team.operator (expand)</title>
<path fill="none" stroke="black" d="M908.65,-287.52C934.07,-278 965.71,-266.16 992.5,-256.13"/>
<polygon fill="black" stroke="black" points="993.37,-259.17 1001.51,-252.38 990.92,-252.61 993.37,-259.17"/>
</g>
<!-- [root] tfe_variable.tfe&#45;token (expand) -->
<g id="node13" class="node">
<title>[root] tfe_variable.tfe&#45;token (expand)</title>
<polygon fill="none" stroke="black" points="1036.44,-396 903.44,-396 903.44,-360 1036.44,-360 1036.44,-396"/>
<text text-anchor="middle" x="969.94" y="-372.95" font-family="Times,serif" font-size="14.00">tfe_variable.tfe&#45;token</text>
</g>
<!-- [root] tfe_variable.tfe&#45;token (expand)&#45;&gt;[root] tfe_team_token.operator (expand) -->
<g id="edge21" class="edge">
<title>[root] tfe_variable.tfe&#45;token (expand)&#45;&gt;[root] tfe_team_token.operator (expand)</title>
<path fill="none" stroke="black" d="M942.97,-359.52C929.21,-350.6 912.29,-339.63 897.48,-330.03"/>
<polygon fill="black" stroke="black" points="899.87,-326.76 889.58,-324.26 896.06,-332.64 899.87,-326.76"/>
</g>
<!-- [root] tfe_variable.tfe&#45;token (expand)&#45;&gt;[root] tfe_variable_set.operator (expand) -->
<g id="edge22" class="edge">
<title>[root] tfe_variable.tfe&#45;token (expand)&#45;&gt;[root] tfe_variable_set.operator (expand)</title>
<path fill="none" stroke="black" d="M1036.38,-359.52C1073.82,-349.67 1120.73,-337.32 1159.66,-327.07"/>
<polygon fill="black" stroke="black" points="1160.11,-330.31 1168.89,-324.38 1158.33,-323.54 1160.11,-330.31"/>
</g>
<!-- [root] tfe_variable_set.operator (expand)&#45;&gt;[root] tfe_project.operator (expand) -->
<g id="edge23" class="edge">
<title>[root] tfe_variable_set.operator (expand)&#45;&gt;[root] tfe_project.operator (expand)</title>
<path fill="none" stroke="black" d="M1213.01,-287.59C1179.7,-262.29 1117.8,-215.29 1080.29,-186.8"/>
<polygon fill="black" stroke="black" points="1082.85,-183.59 1072.77,-180.33 1078.62,-189.17 1082.85,-183.59"/>
</g>
<!-- [root] provider[&quot;registry.terraform.io/hashicorp/helm&quot;] (close) -->
<g id="node15" class="node">
<title>[root] provider[&quot;registry.terraform.io/hashicorp/helm&quot;] (close)</title>
<ellipse fill="none" stroke="black" cx="247.94" cy="-522" rx="242.77" ry="18"/>
<text text-anchor="middle" x="247.94" y="-516.95" font-family="Times,serif" font-size="14.00">[root] provider[&quot;registry.terraform.io/hashicorp/helm&quot;] (close)</text>
</g>
<!-- [root] provider[&quot;registry.terraform.io/hashicorp/helm&quot;] (close)&#45;&gt;[root] helm_release.operator (expand) -->
<g id="edge8" class="edge">
<title>[root] provider[&quot;registry.terraform.io/hashicorp/helm&quot;] (close)&#45;&gt;[root] helm_release.operator (expand)</title>
<path fill="none" stroke="black" d="M253.63,-503.7C256.14,-496.07 259.14,-486.92 261.94,-478.4"/>
<polygon fill="black" stroke="black" points="265.53,-479.7 265.32,-469.1 258.88,-477.51 265.53,-479.7"/>
</g>
<!-- [root] provider[&quot;registry.terraform.io/hashicorp/kubernetes&quot;] (close) -->
<g id="node16" class="node">
<title>[root] provider[&quot;registry.terraform.io/hashicorp/kubernetes&quot;] (close)</title>
<ellipse fill="none" stroke="black" cx="772.94" cy="-522" rx="263.75" ry="18"/>
<text text-anchor="middle" x="772.94" y="-516.95" font-family="Times,serif" font-size="14.00">[root] provider[&quot;registry.terraform.io/hashicorp/kubernetes&quot;] (close)</text>
</g>
<!-- [root] provider[&quot;registry.terraform.io/hashicorp/kubernetes&quot;] (close)&#45;&gt;[root] kubernetes_secret.operator (expand) -->
<g id="edge9" class="edge">
<title>[root] provider[&quot;registry.terraform.io/hashicorp/kubernetes&quot;] (close)&#45;&gt;[root] kubernetes_secret.operator (expand)</title>
<path fill="none" stroke="black" d="M762.15,-503.59C746.9,-478.97 718.91,-433.8 701.15,-405.14"/>
<polygon fill="black" stroke="black" points="703.79,-403.77 695.55,-397.11 697.84,-407.45 703.79,-403.77"/>
</g>
<!-- [root] provider[&quot;registry.terraform.io/hashicorp/tfe&quot;] (close) -->
<g id="node17" class="node">
<title>[root] provider[&quot;registry.terraform.io/hashicorp/tfe&quot;] (close)</title>
<ellipse fill="none" stroke="black" cx="1064.94" cy="-450" rx="233.56" ry="18"/>
<text text-anchor="middle" x="1064.94" y="-444.95" font-family="Times,serif" font-size="14.00">[root] provider[&quot;registry.terraform.io/hashicorp/tfe&quot;] (close)</text>
</g>
<!-- [root] provider[&quot;registry.terraform.io/hashicorp/tfe&quot;] (close)&#45;&gt;[root] tfe_project_variable_set.tfc&#45;operator (expand) -->
<g id="edge10" class="edge">
<title>[root] provider[&quot;registry.terraform.io/hashicorp/tfe&quot;] (close)&#45;&gt;[root] tfe_project_variable_set.tfc&#45;operator (expand)</title>
<path fill="none" stroke="black" d="M1104.33,-431.88C1125.9,-422.5 1152.86,-410.78 1175.9,-400.76"/>
<polygon fill="black" stroke="black" points="1177.07,-403.63 1184.85,-396.43 1174.28,-397.21 1177.07,-403.63"/>
</g>
<!-- [root] provider[&quot;registry.terraform.io/hashicorp/tfe&quot;] (close)&#45;&gt;[root] tfe_team_project_access.admin (expand) -->
<g id="edge11" class="edge">
<title>[root] provider[&quot;registry.terraform.io/hashicorp/tfe&quot;] (close)&#45;&gt;[root] tfe_team_project_access.admin (expand)</title>
<path fill="none" stroke="black" d="M1062.98,-431.59C1060.27,-407.5 1055.34,-363.75 1052.1,-335.03"/>
<polygon fill="black" stroke="black" points="1055.47,-334.66 1050.87,-325.11 1048.51,-335.44 1055.47,-334.66"/>
</g>
<!-- [root] provider[&quot;registry.terraform.io/hashicorp/tfe&quot;] (close)&#45;&gt;[root] tfe_variable.tfe&#45;token (expand) -->
<g id="edge12" class="edge">
<title>[root] provider[&quot;registry.terraform.io/hashicorp/tfe&quot;] (close)&#45;&gt;[root] tfe_variable.tfe&#45;token (expand)</title>
<path fill="none" stroke="black" d="M1041.46,-431.7C1029.59,-422.95 1014.99,-412.19 1002.09,-402.69"/>
<polygon fill="black" stroke="black" points="1004.61,-399.46 994.49,-396.35 1000.46,-405.1 1004.61,-399.46"/>
</g>
<!-- [root] root -->
<g id="node18" class="node">
<title>[root] root</title>
<ellipse fill="none" stroke="black" cx="772.94" cy="-594" rx="49.3" ry="18"/>
<text text-anchor="middle" x="772.94" y="-588.95" font-family="Times,serif" font-size="14.00">[root] root</text>
</g>
<!-- [root] root&#45;&gt;[root] provider[&quot;registry.terraform.io/hashicorp/helm&quot;] (close) -->
<g id="edge13" class="edge">
<title>[root] root&#45;&gt;[root] provider[&quot;registry.terraform.io/hashicorp/helm&quot;] (close)</title>
<path fill="none" stroke="black" d="M727.27,-586.91C649.21,-576.5 487.54,-554.95 373.6,-539.75"/>
<polygon fill="black" stroke="black" points="374.1,-536.16 363.73,-538.3 373.18,-543.1 374.1,-536.16"/>
</g>
<!-- [root] root&#45;&gt;[root] provider[&quot;registry.terraform.io/hashicorp/kubernetes&quot;] (close) -->
<g id="edge14" class="edge">
<title>[root] root&#45;&gt;[root] provider[&quot;registry.terraform.io/hashicorp/kubernetes&quot;] (close)</title>
<path fill="none" stroke="black" d="M772.94,-575.7C772.94,-568.24 772.94,-559.32 772.94,-550.97"/>
<polygon fill="black" stroke="black" points="776.44,-551.1 772.94,-541.1 769.44,-551.1 776.44,-551.1"/>
</g>
<!-- [root] root&#45;&gt;[root] provider[&quot;registry.terraform.io/hashicorp/tfe&quot;] (close) -->
<g id="edge15" class="edge">
<title>[root] root&#45;&gt;[root] provider[&quot;registry.terraform.io/hashicorp/tfe&quot;] (close)</title>
<path fill="none" stroke="black" d="M821.48,-589.9C891.2,-584.43 1014.76,-570.61 1045.94,-540 1061.87,-524.36 1066.01,-498.88 1066.51,-479.18"/>
<polygon fill="black" stroke="black" points="1070.01,-479.35 1066.46,-469.37 1063.01,-479.39 1070.01,-479.35"/>
</g>
</g>
</svg>
